<svg id="visual" viewBox="0 0 1000 360" width="1000" height="360" xmlns="http://www.w3.org/2000/svg" xmlns:xlink="http://www.w3.org/1999/xlink" version="1.1"><rect x="0" y="0" width="1000" height="360" fill="#f5f5f5"></rect><path d="M0 136L23.8 140.3C47.7 144.7 95.3 153.3 143 158C190.7 162.7 238.3 163.3 286 162.3C333.7 161.3 381.3 158.7 428.8 155C476.3 151.3 523.7 146.7 571.2 149.7C618.7 152.7 666.3 163.3 714 169C761.7 174.7 809.3 175.3 857 175.8C904.7 176.3 952.3 176.7 976.2 176.8L1000 177L1000 0L976.2 0C952.3 0 904.7 0 857 0C809.3 0 761.7 0 714 0C666.3 0 618.7 0 571.2 0C523.7 0 476.3 0 428.8 0C381.3 0 333.7 0 286 0C238.3 0 190.7 0 143 0C95.3 0 47.7 0 23.8 0L0 0Z" fill="#f5f5f5"></path><path d="M0 138L23.8 139.3C47.7 140.7 95.3 143.3 143 142.2C190.7 141 238.3 136 286 130.7C333.7 125.3 381.3 119.7 428.8 118.2C476.3 116.7 523.7 119.3 571.2 124.5C618.7 129.7 666.3 137.3 714 141.3C761.7 145.3 809.3 145.7 857 140C904.7 134.3 952.3 122.7 976.2 116.8L1000 111L1000 0L976.2 0C952.3 0 904.7 0 857 0C809.3 0 761.7 0 714 0C666.3 0 618.7 0 571.2 0C523.7 0 476.3 0 428.8 0C381.3 0 333.7 0 286 0C238.3 0 190.7 0 143 0C95.3 0 47.7 0 23.8 0L0 0Z" fill="#d1caf9"></path><path d="M0 77L23.8 76.8C47.7 76.7 95.3 76.3 143 74.2C190.7 72 238.3 68 286 69.3C333.7 70.7 381.3 77.3 428.8 84.3C476.3 91.3 523.7 98.7 571.2 101C618.7 103.3 666.3 100.7 714 94.5C761.7 88.3 809.3 78.7 857 77.2C904.7 75.7 952.3 82.3 976.2 85.7L1000 89L1000 0L976.2 0C952.3 0 904.7 0 857 0C809.3 0 761.7 0 714 0C666.3 0 618.7 0 571.2 0C523.7 0 476.3 0 428.8 0C381.3 0 333.7 0 286 0C238.3 0 190.7 0 143 0C95.3 0 47.7 0 23.8 0L0 0Z" fill="#a8a1fc"></path><path d="M0 83L23.8 77.5C47.7 72 95.3 61 143 56.5C190.7 52 238.3 54 286 58.7C333.7 63.3 381.3 70.7 428.8 72.8C476.3 75 523.7 72 571.2 69.7C618.7 67.3 666.3 65.7 714 63.3C761.7 61 809.3 58 857 56.5C904.7 55 952.3 55 976.2 55L1000 55L1000 0L976.2 0C952.3 0 904.7 0 857 0C809.3 0 761.7 0 714 0C666.3 0 618.7 0 571.2 0C523.7 0 476.3 0 428.8 0C381.3 0 333.7 0 286 0C238.3 0 190.7 0 143 0C95.3 0 47.7 0 23.8 0L0 0Z" fill="#767afe"></path><path d="M0 19L23.8 20.7C47.7 22.3 95.3 25.7 143 29.5C190.7 33.3 238.3 37.7 286 39.5C333.7 41.3 381.3 40.7 428.8 40.2C476.3 39.7 523.7 39.3 571.2 39.3C618.7 39.3 666.3 39.7 714 40.3C761.7 41 809.3 42 857 41.5C904.7 41 952.3 39 976.2 38L1000 37L1000 0L976.2 0C952.3 0 904.7 0 857 0C809.3 0 761.7 0 714 0C666.3 0 618.7 0 571.2 0C523.7 0 476.3 0 428.8 0C381.3 0 333.7 0 286 0C238.3 0 190.7 0 143 0C95.3 0 47.7 0 23.8 0L0 0Z" fill="#0055ff"></path></svg>